<?xml version="1.0" encoding="UTF-8"?>
<svg version="1.1" xmlns="http://www.w3.org/2000/svg" width="750" height="750">
<path d="M0 0 C1.9737165 0.88602773 3.94952759 1.76726643 5.92549133 2.64826965 C7.31663739 3.26892028 8.70699544 3.89133987 10.09660339 4.51542664 C15.42919088 6.90337904 20.80154705 9.18378925 26.1953125 11.4296875 C27.78222133 12.09413784 29.36905455 12.75876877 30.95581055 13.42358398 C33.27206217 14.39377592 35.58943109 15.36038642 37.91226196 16.31472778 C59.12519825 25.04391289 64.63597968 37.72898496 73.4375 58.125 C74.24776762 59.98919527 75.05864416 61.85312599 75.87011719 63.71679688 C77.45223127 67.35307857 79.0306924 70.99090574 80.60546875 74.63037109 C82.25918925 78.45158303 83.92217173 82.26858922 85.59375 86.08203125 C86.19026367 87.45282837 86.19026367 87.45282837 86.79882812 88.85131836 C87.55739211 90.57418891 88.33217835 92.29000848 89.12304688 93.99829102 C91.28813911 98.76531572 93.03032402 103.47214691 94.44033813 108.50572205 C98.97289698 125.4997406 98.97289698 125.4997406 110.45605469 137.98193359 C119.61238158 142.61775436 129.79875895 144.8632579 139.72900391 147.20849609 C146.43601434 148.81808155 152.89528206 151.06501546 159.40130615 153.33575439 C163.01222014 154.58615872 166.64161515 155.78049097 170.26953125 156.98046875 C171.8862551 157.51734119 173.50295302 158.05429173 175.11962891 158.59130859 C179.2878024 159.97417995 183.45699823 161.3539428 187.62646484 162.73291016 C193.37946192 164.63561042 199.13143471 166.54136762 204.88242435 168.45012665 C208.0809818 169.51150897 211.28026226 170.57057964 214.48062134 171.62652588 C218.0926582 172.8184188 221.70273965 174.01607669 225.3125 175.21484375 C226.38308151 175.56654129 227.45366302 175.91823883 228.5566864 176.28059387 C244.74483364 181.67547707 256.34947803 186.57391555 264.5859375 202.2734375 C265.78945454 204.76713283 266.9287236 207.28650532 268.0625 209.8125 C268.68905894 211.16216016 269.31751472 212.51094117 269.94775391 213.85888672 C271.56673437 217.33882446 273.15449921 220.83204837 274.73339844 224.33032227 C275.99771352 227.12262102 277.27968749 229.90666077 278.56112671 232.69113159 C280.071112 235.97726991 281.56859707 239.26902462 283.0625 242.5625 C283.34357605 243.18082703 283.6246521 243.79915405 283.91424561 244.43621826 C284.70678362 246.18648206 285.4903101 247.9408179 286.2734375 249.6953125 C286.7173584 250.6867627 287.1612793 251.67821289 287.61865234 252.69970703 C290.79718145 260.84133002 290.84211975 270.11657936 287.71484375 278.2734375 C284.44317278 285.16509423 279.50638039 291.02944831 274.84667969 297.01782227 C269.50336097 303.90866488 264.45132914 311.00918389 259.36962891 318.09375 C256.60740525 321.94242156 253.83539872 325.78401566 251.0625 329.625 C250.52206055 330.37410645 249.98162109 331.12321289 249.42480469 331.89501953 C246.01593553 336.61491299 242.57894723 341.31303477 239.125 346 C234.72275412 351.9765325 230.43330727 358.02720579 226.16772461 364.10180664 C222.89425422 368.75424825 219.56584039 373.36074743 216.1875 377.9375 C212.15947317 383.40311192 208.18131813 388.9018572 204.25 394.4375 C203.75371094 395.13166016 203.25742187 395.82582031 202.74609375 396.54101562 C202.27429688 397.20810547 201.8025 397.87519531 201.31640625 398.5625 C200.90463135 399.14257812 200.49285645 399.72265625 200.06860352 400.3203125 C199.38495728 401.36832031 199.38495728 401.36832031 198.6875 402.4375 C197.9126123 403.49670654 197.13772461 404.55591309 196.33935547 405.6472168 C195.12742664 407.81305772 194.62811386 408.94038996 194.92460632 411.42227173 C195.68535612 413.68793043 196.60729309 415.79631051 197.62890625 417.95703125 C197.98204895 418.76442245 198.33519165 419.57181366 198.69903564 420.40367126 C199.85581841 423.03200109 201.05246493 425.64002047 202.25 428.25 C203.05790617 430.06736549 203.86282273 431.88606285 204.66479492 433.70605469 C206.25877929 437.3154751 207.86631499 440.9183029 209.48632812 444.51611328 C212.26239947 450.69682557 214.89069825 456.93461898 217.5 463.1875 C220.27313653 469.76429475 223.06652706 476.33219356 225.8828125 482.890625 C226.15363144 483.52143982 226.42445038 484.15225464 226.70347595 484.80218506 C228.01033185 487.8452411 229.31899972 490.88749124 230.63012695 493.92871094 C232.77614634 498.91836189 234.9102012 503.91264324 236.97265625 508.9375 C237.28211182 509.6903125 237.59156738 510.443125 237.91040039 511.21875 C240.94880493 519.89390566 240.63544795 529.12913194 236.6875 537.4375 C233.69059245 542.28543868 230.18523143 546.61809323 226.5625 551 C220.79298244 558.04168328 215.19677886 565.18991438 209.6875 572.4375 C205.84983649 577.47608133 202.00452303 582.5086251 198.14599609 587.53125 C196.87606341 589.19104819 195.61856777 590.8603476 194.36328125 592.53125 C189.803421 598.4796728 184.97512716 604.00829095 177.6875 606.4375 C162.80328055 607.75329237 150.42135281 604.63611022 136.375 600 C134.35376647 599.35564387 132.33161782 598.71415174 130.30859375 598.07543945 C126.29864676 596.80664504 122.29296981 595.52566472 118.29052734 594.23339844 C111.24945771 591.96655848 104.17630674 589.81202662 97.08901978 587.6947937 C95.23958762 587.14060814 93.39257936 586.57835359 91.5456543 586.01586914 C90.44777588 585.68449951 89.34989746 585.35312988 88.21875 585.01171875 C87.28611328 584.72901123 86.35347656 584.44630371 85.39257812 584.1550293 C82.50741635 583.38973232 79.63743137 582.88384263 76.6875 582.4375 C74.7268453 584.83146553 72.76855196 587.22727639 70.8125 589.625 C70.22259277 590.3473584 69.63268555 591.0697168 69.02490234 591.81396484 C65.7904036 595.79172499 62.62381423 599.80388995 59.55297852 603.90917969 C51.69074985 614.3880249 42.95223844 621.65682458 29.6875 624.4375 C14.47678461 625.80373192 0.99936874 624.07559926 -13.31152344 618.87475586 C-15.82845161 618.32475362 -16.95711625 618.35404079 -19.3125 619.4375 C-21.39261555 621.82499071 -21.39261555 621.82499071 -23.33203125 624.88671875 C-23.89481277 625.72687279 -23.89481277 625.72687279 -24.46896362 626.58399963 C-25.69829933 628.42415056 -26.91144497 630.27441234 -28.125 632.125 C-28.97968071 633.40997529 -29.83556865 634.69414837 -30.69262695 635.97753906 C-32.42376472 638.57164952 -34.14975164 641.16906985 -35.87207031 643.76904297 C-39.19592853 648.77754089 -42.59756593 653.73219078 -46 658.6875 C-49.89767032 664.37832069 -53.75544287 670.09187193 -57.55078125 675.8515625 C-58.26210205 676.92889648 -58.97342285 678.00623047 -59.70629883 679.11621094 C-61.06693882 681.18106532 -62.42260699 683.24920842 -63.7722168 685.32128906 C-76.68896356 704.91818825 -76.68896356 704.91818825 -87.3125 708.4375 C-97.09414955 709.60545816 -105.80314825 707.340417 -115.0625 704.4375 C-116.41586094 704.02708423 -117.7696283 703.6180065 -119.1237793 703.21020508 C-122.53856043 702.17604632 -125.94567993 701.11896647 -129.35028076 700.05181885 C-131.23770451 699.46091649 -133.12687601 698.87560557 -135.01611328 698.29052734 C-174.14000038 686.15761661 -174.14000038 686.15761661 -181.42800903 672.31941223 C-182.42646611 669.99063135 -183.33606278 667.64603823 -184.21484375 665.26953125 C-184.5501561 664.3976265 -184.88546844 663.52572174 -185.23094177 662.62739563 C-186.27362874 659.90300967 -187.29495261 657.17136273 -188.3125 654.4375 C-188.94382355 652.76207525 -189.57548792 651.08677887 -190.20751953 649.41162109 C-191.78718332 645.20542723 -193.34609417 640.99183032 -194.89859009 636.77554321 C-202.11791248 617.17811212 -209.5441391 597.66422219 -217.09417725 578.19204712 C-217.34322815 577.54899628 -217.59227905 576.90594543 -217.84887695 576.2434082 C-218.10199646 575.62042847 -218.35511597 574.99744873 -218.61590576 574.35559082 C-219.3125 572.4375 -219.3125 572.4375 -219.77032471 570.31628418 C-220.34920481 567.99123985 -220.91844053 566.39455385 -222.3125 564.4375 C-225.86218638 562.39668913 -229.62613109 561.45780427 -233.5703125 560.4296875 C-234.71991455 560.10181747 -235.8695166 559.77394745 -237.05395508 559.43614197 C-240.18728195 558.54892 -243.32693962 557.6912342 -246.47171783 556.84570694 C-249.77951234 555.94848698 -253.07644624 555.01303492 -256.37451172 554.08081055 C-261.76424976 552.56177316 -267.15912671 551.06267982 -272.55859375 549.57861328 C-279.50979187 547.66677893 -286.44581812 545.70492296 -293.375 543.71484375 C-294.38928574 543.42370697 -295.40357147 543.13257019 -296.44859314 542.83261108 C-298.45546069 542.25623047 -300.46225199 541.67958432 -302.46896362 541.10266113 C-307.41657387 539.68154499 -312.36640032 538.26821371 -317.31640625 536.85546875 C-318.29001602 536.5773233 -319.26362579 536.29917786 -320.26673889 536.01260376 C-326.55570474 534.2177886 -332.84967851 532.44148305 -339.14611816 530.67308044 C-343.5112405 529.44353834 -347.8725129 528.20071284 -352.23309326 526.95516968 C-354.28700403 526.37161834 -356.34249731 525.79360107 -358.39971924 525.22183228 C-394.97433622 515.04844012 -394.97433622 515.04844012 -405.3125 500.4375 C-410.61829131 490.57278725 -414.01380112 479.63098178 -417.8125 469.125 C-418.46965966 467.31821659 -419.12720935 465.511575 -419.78515625 463.70507812 C-421.35126624 459.40097483 -422.91036193 455.09438748 -424.46484375 450.78607178 C-425.01219709 449.26953886 -425.56031913 447.75328307 -426.109375 446.23736572 C-426.81448125 444.29046224 -427.51707239 442.34267259 -428.21875 440.39453125 C-428.79592773 438.79508667 -428.79592773 438.79508667 -429.38476562 437.16333008 C-432.56078292 427.83168977 -431.37719379 419.69321927 -428.3125 410.4375 C-426.51137028 406.79451821 -424.34530101 403.48250447 -422.0625 400.125 C-421.44697266 399.18914062 -420.83144531 398.25328125 -420.19726562 397.2890625 C-418.90080939 395.32012695 -417.5973157 393.35580867 -416.28710938 391.39599609 C-413.72139698 387.55186864 -411.20010506 383.67966665 -408.67944336 379.8059082 C-407.4325645 377.8901792 -406.18336818 375.97595659 -404.93188477 374.06323242 C-399.96561926 366.47106611 -395.09369657 358.82169706 -390.23925781 351.15771484 C-386.52178107 345.30157565 -382.72151723 339.51096431 -378.84716797 333.7578125 C-375.59098937 328.90348495 -372.49557812 323.9599026 -369.41967773 318.98999023 C-364.97779211 311.84263147 -360.36644266 304.80706774 -355.75317383 297.76953125 C-354.54339144 295.92309785 -353.33863869 294.07335837 -352.13916016 292.22021484 C-350.87560121 290.29532245 -349.58135983 288.39035119 -348.26318359 286.50244141 C-347.6130127 285.54901855 -346.9628418 284.5955957 -346.29296875 283.61328125 C-345.69766357 282.76290283 -345.1023584 281.91252441 -344.48901367 281.03637695 C-342.59740624 276.85788327 -343.85152249 273.80916315 -345.26123047 269.61450195 C-345.64682129 268.64472412 -346.03241211 267.67494629 -346.4296875 266.67578125 C-346.86571289 265.57177979 -347.30173828 264.46777832 -347.75097656 263.33032227 C-348.2250293 262.14881592 -348.69908203 260.96730957 -349.1875 259.75 C-349.68755006 258.49225538 -350.18721761 257.23435862 -350.68652344 255.97631836 C-353.93798095 247.80121963 -357.24354039 239.64789354 -360.5625 231.5 C-360.99715576 230.42919189 -361.43181152 229.35838379 -361.87963867 228.25512695 C-364.31072907 222.28256538 -366.77561248 216.32728226 -369.28970337 210.38926697 C-370.6930576 207.06586919 -372.0806172 203.73598708 -373.46643066 200.40524292 C-374.14756153 198.77897963 -374.83564071 197.15560654 -375.53112793 195.53543091 C-383.7640728 176.34061288 -383.7640728 176.34061288 -380.2734375 166.51171875 C-379.75007813 165.72410156 -379.22671875 164.93648437 -378.6875 164.125 C-378.05328125 163.13628906 -377.4190625 162.14757812 -376.765625 161.12890625 C-376.20004883 160.28223389 -376.20004883 160.28223389 -375.62304688 159.41845703 C-374.06247206 157.05957028 -372.5544796 154.6704286 -371.046875 152.27734375 C-367.49548747 146.64679798 -363.90892474 141.03935816 -360.3125 135.4375 C-359.84956543 134.7161084 -359.38663086 133.9947168 -358.90966797 133.25146484 C-358.49475098 132.60516113 -358.07983398 131.95885742 -357.65234375 131.29296875 C-357.26546387 130.69033203 -356.87858398 130.08769531 -356.47998047 129.46679688 C-355.40856214 127.80214516 -354.33132582 126.14124256 -353.25390625 124.48046875 C-351.97925926 122.48258141 -350.73572603 120.46443056 -349.52734375 118.42578125 C-344.22238732 109.56807495 -337.91660825 102.23437134 -327.7734375 99.06640625 C-323.2291185 98.24063271 -318.80078674 97.9687728 -314.1875 97.875 C-313.3718457 97.84792969 -312.55619141 97.82085937 -311.71582031 97.79296875 C-294.89979044 97.89657155 -277.31254075 106.38462865 -261.62475586 111.80615234 C-258.85060464 112.76298477 -256.07227116 113.70669132 -253.29296875 114.6484375 C-252.44824509 114.94414642 -251.60352142 115.23985535 -250.73320007 115.54452515 C-249.94750137 115.80875275 -249.16180267 116.07298035 -248.35229492 116.34521484 C-247.66632736 116.58106293 -246.9803598 116.81691101 -246.27360535 117.05990601 C-243.92275459 117.51254213 -242.54001883 117.29506915 -240.3125 116.4375 C-238.33056167 114.01850765 -238.33056167 114.01850765 -236.625 111.0625 C-235.72201172 109.59683594 -235.72201172 109.59683594 -234.80078125 108.1015625 C-233.21628904 105.45988356 -233.21628904 105.45988356 -232.3125 102.4375 C-231.6525 102.4375 -230.9925 102.4375 -230.3125 102.4375 C-229.23724806 99.78521188 -228.21793849 97.15381546 -227.3125 94.4375 C-226.6525 94.4375 -225.9925 94.4375 -225.3125 94.4375 C-224.93351562 93.39916016 -224.93351562 93.39916016 -224.546875 92.33984375 C-217.00678433 74.61108625 -201.81886188 59.70704297 -184.23046875 52.10546875 C-177.42274151 49.52636994 -171.3028695 48.26445178 -164 48.125 C-162.74574219 48.08761719 -161.49148438 48.05023438 -160.19921875 48.01171875 C-145.82716589 48.70216865 -131.30444283 54.93140605 -117.8125 59.5 C-115.92986453 60.13138749 -114.04705278 60.76224958 -112.1640625 61.39257812 C-110.34880094 62.00213566 -108.53369115 62.61214537 -106.71875 63.22265625 C-105.89153442 63.50085709 -105.06431885 63.77905792 -104.21203613 64.06568909 C-100.40967986 65.35376957 -96.6413065 66.68609667 -92.8984375 68.13867188 C-88.53985301 69.72391846 -88.53985301 69.72391846 -84.3125 68.4375 C-82.40814007 66.31757856 -82.40814007 66.31757856 -80.8125 63.5 C-77.40878942 58.10012833 -73.82639157 52.90546144 -70.0625 47.75 C-65.7073717 41.75846051 -61.38830517 35.7447531 -57.125 29.6875 C-56.63265869 28.98931152 -56.14031738 28.29112305 -55.63305664 27.57177734 C-53.72968743 24.87220066 -51.82687209 22.17229126 -49.93261719 19.46630859 C-35.42465896 -1.2540857 -35.42465896 -1.2540857 -25.3125 -4.5625 C-24.72855469 -4.75972656 -24.14460938 -4.95695313 -23.54296875 -5.16015625 C-14.44817424 -6.80072339 -8.19023783 -3.75145542 0 0 Z " fill="#030304" transform="translate(444.3125,18.5625)"/>
<path d="M0 0 C7.08368949 1.74607977 13.80558185 3.97573672 20.56640625 6.71875 C26.93611914 9.0956167 33.39776929 10.86084857 40.01083374 12.43214417 C67.3715433 19.10542779 67.3715433 19.10542779 73.53515625 28.77734375 C76.29373411 34.41724451 78.15357692 40.30336427 79.88378906 46.328125 C81.72704705 52.39168583 84.31047049 58.12270272 86.8125 63.9375 C87.80401835 66.34318624 88.79087755 68.75079724 89.7734375 71.16015625 C92.11918775 76.89097651 94.50888254 82.60248685 96.9140625 88.30859375 C97.92481987 90.71231639 98.93524318 93.11617927 99.94564819 95.52005005 C100.59484135 97.06142688 101.24583374 98.60204746 101.89883423 100.14181519 C110.7070475 120.91948131 118.29669886 139.59891307 110 162 C106.39346769 170.29502431 100.97602644 177.18250385 95.40039062 184.21386719 C92.92283039 187.37387951 90.52704614 190.59494437 88.125 193.8125 C87.1042242 195.17712638 86.08339051 196.54170944 85.0625 197.90625 C84.55460937 198.58558594 84.04671875 199.26492188 83.5234375 199.96484375 C82.03931591 201.94747797 80.55163183 203.92737696 79.0625 205.90625 C68.68844422 219.69568969 58.37998233 233.52887534 48.46875 247.65600586 C44.85594817 252.80269123 41.1903742 257.90869603 37.5 263 C29.01437905 274.71600731 20.68365012 286.5367699 12.46484375 298.44140625 C9.3891189 302.88927837 6.28831836 307.31960163 3.1875 311.75 C2.58494385 312.61101318 1.9823877 313.47202637 1.36157227 314.35913086 C-1.42887263 318.34275728 -4.22438955 322.32251019 -7.0390625 326.2890625 C-14.58083534 336.91760052 -21.9360248 347.66641505 -29.26171875 358.44482422 C-31.68735013 362.01036607 -34.12115811 365.57019905 -36.5625 369.125 C-36.99675293 369.75736572 -37.43100586 370.38973145 -37.87841797 371.04125977 C-40.3081859 374.57016602 -42.75833238 378.08381748 -45.2265625 381.5859375 C-52.41788574 391.79340745 -59.45295905 402.08579432 -66.3190918 412.515625 C-70.13757177 418.29483949 -74.09756802 423.9355006 -78.19628906 429.51928711 C-80.45445818 432.62503378 -82.57932366 435.79042453 -84.6875 439 C-88.4841997 444.74873422 -92.34756355 450.44755602 -96.25 456.125 C-101.58416559 463.89113911 -106.82368542 471.71679999 -112.03662109 479.56469727 C-115.94769149 485.44449736 -119.92357738 491.27007248 -123.96875 497.05859375 C-126.80923664 501.17183691 -129.54482618 505.35070027 -132.2734375 509.5390625 C-134.66683892 512.95047176 -136.01018039 514.67006013 -140 516 C-147.72468708 516.57532426 -153.79233254 514.80811304 -161.0625 512.3125 C-163.29026684 511.57392387 -165.51813137 510.83564233 -167.74609375 510.09765625 C-169.35653564 509.5564917 -169.35653564 509.5564917 -170.99951172 509.00439453 C-182.22126472 505.24798348 -193.54050813 501.9471969 -205 499 C-205 494.15194544 -203.22814118 491.86563126 -200.56640625 488.05078125 C-200.10192581 487.36945129 -199.63744537 486.68812134 -199.15888977 485.98614502 C-197.63534205 483.75558119 -196.09901922 481.5341435 -194.5625 479.3125 C-193.50513086 477.76940918 -192.44865913 476.22570306 -191.39306641 474.68139648 C-189.26835958 471.57547892 -187.13896682 468.47286464 -185.00537109 465.37304688 C-181.63666915 460.47636324 -178.29758929 455.5600034 -174.9621582 450.640625 C-168.93729057 441.75519616 -162.88107154 432.89113886 -156.81445312 424.03417969 C-152.65870705 417.96658288 -148.51585553 411.89026609 -144.375 405.8125 C-135.64190464 393.00028228 -126.85973362 380.2250298 -118 367.5 C-105.87522362 350.0840276 -93.92366553 332.55421348 -82 315 C-73.11574322 301.92045331 -64.23172521 288.8414652 -55.25634766 275.82421875 C-53.98495966 273.97816141 -52.71663889 272.13003339 -51.44921875 270.28125 C-44.0492267 259.49045958 -36.57632977 248.75085951 -29.09814453 238.01416016 C-27.01018616 235.01463327 -24.92461778 232.01345956 -22.83984375 229.01171875 C-16.33456571 219.64714768 -9.81095583 210.29727004 -3.22119141 200.99194336 C0.47034402 195.77094995 4.10193348 190.51095159 7.71166992 185.2331543 C10.87239532 180.61884534 14.0783792 176.03824637 17.30004883 171.46630859 C23.4207009 162.77539205 29.38864912 154.03018718 35 145 C35.53882813 144.16210938 36.07765625 143.32421875 36.6328125 142.4609375 C43.11111719 130.79998906 42.58510037 113.83253152 40.296875 101.08203125 C39.08685183 96.94176542 37.6044892 93.00052641 36 89 C35.18599455 86.90502692 34.3722128 84.80996692 33.55859375 82.71484375 C30.4447488 74.78019618 27.22769328 66.88888203 24 59 C23.3319977 57.36524808 22.66403005 55.73048201 21.99609375 54.09570312 C18.59380712 45.77227066 15.18272607 37.45247419 11.76171875 29.13671875 C11.29441597 28.00066444 11.29441597 28.00066444 10.81767273 26.84165955 C9.2145507 22.94598455 7.60841552 19.05157864 5.99853516 15.15869141 C5.67657669 14.37927689 5.35461823 13.59986237 5.02290344 12.79682922 C4.41129293 11.31648004 3.79886058 9.83647003 3.18547058 8.3568573 C2.04254586 5.58932458 0.94724201 2.84172603 0 0 Z " fill="#212532" transform="translate(494,200)"/>
<path d="M0 0 C6.5775329 0.96691006 12.55868428 2.43422173 18.75610352 4.8293457 C22.28130797 6.10151815 25.84470608 7.16432068 29.4453125 8.1953125 C40.25954249 11.33664908 51.00334089 14.69855544 61.75 18.0625 C62.80599396 18.39246979 63.86198792 18.72243958 64.94998169 19.06240845 C78.84001344 23.40412642 92.69700248 27.83308548 106.52352905 32.37234497 C125.79184907 38.68403362 145.19736022 44.56577165 164.58565521 50.49596691 C167.36659514 51.346664 170.14725582 52.19827214 172.92792892 53.04984093 C174.84322498 53.63577418 176.75908131 54.21987502 178.67495728 54.8039093 C185.25400817 56.81719604 191.7889582 58.91017182 198.28440857 61.18005371 C201.17439244 62.05265609 204.01552311 62.56404418 207 63 C207.67260351 64.76858691 208.33788395 66.53996016 209 68.3125 C209.37125 69.29863281 209.7425 70.28476562 210.125 71.30078125 C211 74 211 74 211 77 C211.99 77.33 212.98 77.66 214 78 C214.84375 79.85546875 214.84375 79.85546875 215.5 82.1875 C216.29337326 84.95958393 217.16305242 87.32049722 218.4765625 89.90234375 C220.01858667 93.0377929 220.95434076 96.01011268 221.875 99.375 C223.28710772 104.13213857 224.8969402 107.78159388 227.70703125 111.828125 C229.98242858 115.65024257 231.31264168 119.86533415 232.7890625 124.046875 C233.92219584 126.81025823 235.19772355 128.65753169 237 131 C237.73828125 132.97265625 237.73828125 132.97265625 238.3125 135.0625 C239.81906452 139.95478477 242.18944636 144.12965043 244.79296875 148.51953125 C246 151 246 151 246 155 C246.66 155 247.32 155 248 155 C248.87279862 156.86639981 249.72251027 158.74360611 250.5625 160.625 C251.03816406 161.66914063 251.51382813 162.71328125 252.00390625 163.7890625 C253.1497478 167.48271642 253.11600469 169.31572252 252 173 C250.2578125 175.8515625 250.2578125 175.8515625 248.125 178.625 C247.42632812 179.54539062 246.72765625 180.46578125 246.0078125 181.4140625 C245.34523438 182.26742187 244.68265625 183.12078125 244 184 C243.60554687 184.79148437 243.21109375 185.58296875 242.8046875 186.3984375 C241 188 241 188 237.359375 187.87841797 C230.19816843 186.92885247 223.33826404 184.63512226 216.4453125 182.546875 C214.91496732 182.08943063 213.38441949 181.63266372 211.85368347 181.17652893 C207.7806 179.96069743 203.71043031 178.73538138 199.64084244 177.50790787 C195.44071935 176.24260354 191.23816156 174.98543694 187.03588867 173.72729492 C180.39691877 171.73842756 173.75957802 169.74421647 167.12353516 167.74560547 C160.42234082 165.7273762 153.71871872 163.71755707 147.01269531 161.71542358 C143.00503182 160.5186021 138.99847865 159.31810556 134.99237061 158.11608887 C133.22238001 157.58533759 131.45208095 157.0556138 129.68145752 156.52697754 C127.28247513 155.80984607 124.88515673 155.08741836 122.48828125 154.36328125 C121.81878952 154.16424698 121.14929779 153.96521271 120.45951843 153.76014709 C117.33172996 152.80897266 114.31090586 151.74427083 111.31787109 150.43725586 C108.66874838 149.28969255 106.20262947 148.38195128 103.42578125 147.640625 C102.19178589 147.30333374 102.19178589 147.30333374 100.93286133 146.95922852 C99.63578247 146.6081604 99.63578247 146.6081604 98.3125 146.25 C66.28545513 137.26905095 66.28545513 137.26905095 57 129 C56.19175781 128.29875 55.38351563 127.5975 54.55078125 126.875 C47.05367693 119.92116411 44.17462606 111.65649528 40.56640625 102.27734375 C39.91713034 100.60243567 39.26779525 98.92755054 38.6184082 97.25268555 C38.11526596 95.95154312 38.11526596 95.95154312 37.60195923 94.62411499 C32.11217077 80.43505635 26.55439618 66.27654833 20.8125 52.1875 C20.55091095 51.54521454 20.2893219 50.90292908 20.01980591 50.24118042 C15.85202624 40.01667498 11.61278283 29.82280925 7.32421875 19.6484375 C6.4453125 17.55729167 5.56640625 15.46614583 4.6875 13.375 C4.23310547 12.30121094 3.77871094 11.22742188 3.31054688 10.12109375 C2.88193359 9.09886719 2.45332031 8.07664062 2.01171875 7.0234375 C1.62459717 6.10481934 1.23747559 5.18620117 0.83862305 4.23974609 C0 2 0 2 0 0 Z " fill="#2448F9" transform="translate(182,291)"/>
<path d="M0 0 C0.69770508 0.20318848 1.39541016 0.40637695 2.11425781 0.61572266 C8.36612328 2.4583321 14.5355215 4.37606032 20.56689453 6.85400391 C25.9273368 9.00870528 31.35834384 10.87125835 36.84375 12.6796875 C37.85232056 13.01493439 38.86089111 13.35018127 39.90002441 13.69558716 C43.09907802 14.75824418 46.29949551 15.81672181 49.5 16.875 C51.61467694 17.57654083 53.72926099 18.27836169 55.84375 18.98046875 C59.96516845 20.34865235 64.08721207 21.71492723 68.2097168 23.07983398 C71.88740315 24.29814582 75.56351224 25.52096997 79.23754883 26.75024414 C80.04514648 27.02035309 80.85274414 27.29046204 81.68481445 27.5687561 C83.15132467 28.05967176 84.61758044 28.55134863 86.08349609 29.04403687 C92.17201565 31.08172086 98.3035149 32.96710575 104.44921875 34.82421875 C108.08982438 36.02974383 111.4896882 37.46163295 115 39 C116.30379937 39.48252762 117.61557471 39.94460572 118.9375 40.375 C119.69546875 40.6225 120.4534375 40.87 121.234375 41.125 C124.02930114 42.00927042 126.82977208 42.87474167 129.63085938 43.73925781 C137.8416999 46.27736663 145.9179163 49.07408109 154 52 C160.49338872 54.29834721 167.08709722 56.2261102 173.71020508 58.11132812 C180.28565692 60.00766801 186.608901 62.40365169 192.9375 65 C199.09044146 67.47057039 205.32528484 69.51719166 211.6875 71.375 C217.10270901 72.97763195 222.39179883 74.89768713 227.703125 76.8125 C233.12216129 78.76438037 238.54827782 80.58749901 244.08203125 82.1875 C245.20001099 82.51137695 245.20001099 82.51137695 246.34057617 82.84179688 C247.82511068 83.26953066 249.3108963 83.69295409 250.7980957 84.11132812 C251.49636475 84.31177734 252.19463379 84.51222656 252.9140625 84.71875 C253.5323291 84.89341797 254.1505957 85.06808594 254.78759766 85.24804688 C257.28418212 86.09658805 259.66779625 87.15360807 262.08425903 88.20498657 C265.36526545 89.56657157 268.72963385 90.66473394 272.1015625 91.77734375 C272.85988373 92.02996475 273.61820496 92.28258575 274.39950562 92.54286194 C275.99747139 93.07451569 277.59591966 93.60472121 279.19482422 94.13354492 C281.59847625 94.92872536 284.00052196 95.72860746 286.40234375 96.52929688 C294.17896742 99.11483574 301.95792748 101.64914888 309.82568359 103.94750977 C312.52876013 104.84375365 315.12238704 105.84078372 317.75756836 106.91430664 C322.72458901 108.92660656 327.74854419 110.62400865 332.85546875 112.2421875 C334.71421977 112.83975957 336.57294285 113.43741859 338.43164062 114.03515625 C341.3025686 114.9537946 344.17403217 115.87070971 347.04614258 116.78564453 C365.68958764 122.73448612 365.68958764 122.73448612 374.48828125 126.1328125 C375.61403564 126.5673877 376.73979004 127.00196289 377.8996582 127.44970703 C384.00684079 130.50353878 387.48182699 134.05180557 390.3671875 140.19921875 C390.64820313 140.78792755 390.92921875 141.37663635 391.21875 141.98318481 C392.11869195 143.87816151 392.99712995 145.78221217 393.875 147.6875 C394.48995302 148.99424966 395.10600742 150.30048157 395.72314453 151.60620117 C400.30276431 161.33386545 404.74392525 171.12643528 409 181 C407 182 407 182 404.39648438 181.29077148 C402.76163086 180.71178101 402.76163086 180.71178101 401.09375 180.12109375 C399.88307861 179.69715332 398.67240723 179.27321289 397.42504883 178.83642578 C396.11666321 178.37021823 394.80831431 177.90390763 393.5 177.4375 C391.50953178 176.73675788 389.51819199 176.03853266 387.52680969 175.34039307 C386.2044656 174.87656114 384.88243325 174.41183954 383.56071472 173.94622803 C378.33224948 172.10624821 373.08064768 170.34729018 367.8125 168.625 C363.4598331 167.19607202 359.16316179 165.71340105 354.9375 163.9375 C349.11509122 161.51149634 343.04464288 159.89901184 336.9921875 158.15625 C331.01039502 156.43367158 325.18942073 154.50739621 319.4375 152.125 C315.24005997 150.41537331 310.98093522 149.02504263 306.6484375 147.70703125 C299.13878693 145.39018337 291.71040365 142.87700394 284.28903198 140.29345703 C267.73239243 134.53470951 251.08466947 129.07557194 234.39331055 123.72094727 C226.88496225 121.30426642 219.44196662 118.89857457 212.15942383 115.85400391 C208.15335766 114.26969419 204.01277753 113.12383343 199.875 111.9375 C194.58876653 110.41153521 189.39442166 108.82132381 184.26025391 106.84155273 C179.14222504 104.93597426 173.93404047 103.27810234 168.75 101.5625 C167.59886719 101.18029297 166.44773437 100.79808594 165.26171875 100.40429688 C162.96339867 99.64121315 160.66481708 98.87891659 158.3659668 98.11743164 C155.0973689 97.03232447 151.83184394 95.93832289 148.56640625 94.84375 C143.44172888 93.13396896 138.28645906 91.55734469 133.10546875 90.02734375 C130 89 130 89 126.73779297 87.57324219 C123.2531639 86.06606906 119.72606693 84.9014391 116.08984375 83.80078125 C114.76760086 83.39626913 113.44541898 82.99155753 112.12329102 82.58666992 C111.09838058 82.27492325 111.09838058 82.27492325 110.05276489 81.95687866 C99.62683322 78.7807999 89.27503191 75.50518255 79.0625 71.6875 C72.23943492 69.13697329 65.42550848 66.84672235 58.41625977 64.86645508 C49.99162793 62.47191665 41.71336743 59.6309723 33.421875 56.81542969 C31.78934425 56.26576712 30.15382043 55.72492512 28.515625 55.19238281 C27.72671875 54.93553711 26.9378125 54.67869141 26.125 54.4140625 C25.42632812 54.18928223 24.72765625 53.96450195 24.0078125 53.73291016 C22 53 22 53 19.9765625 51.97802734 C15.21669892 49.62278852 10.43945861 48.87843913 5.20703125 49.3203125 C0.94280633 49.64793847 -3.03929032 49.8166848 -7 48 C-11.3041763 43.75998003 -13.32151418 37.62891315 -15.61328125 32.15722656 C-17.18318971 28.58292089 -18.92741771 25.11493689 -20.71875 21.6484375 C-21.20273758 20.70793297 -21.20273758 20.70793297 -21.69650269 19.74842834 C-22.34843597 18.4819118 -23.00068763 17.21555908 -23.65325928 15.94937134 C-25.21235775 12.92200185 -26.76062641 9.89072622 -28.2890625 6.84765625 C-28.81193848 5.81648682 -29.33481445 4.78531738 -29.87353516 3.72290039 C-31 1 -31 1 -31 -3 C-20.79090564 -6.40303145 -9.93403166 -2.90689904 0 0 Z " fill="#2448F8" transform="translate(307,84)"/>
<path d="M0 0 C5.29092386 10.03933684 10.57253944 20.08221411 15.62109375 30.24609375 C16.20673096 31.42510254 16.79236816 32.60411133 17.39575195 33.81884766 C18.53735622 36.12526542 19.67529179 38.43350316 20.80932617 40.74365234 C21.32857666 41.79375488 21.84782715 42.84385742 22.3828125 43.92578125 C22.84059082 44.85817627 23.29836914 45.79057129 23.77001953 46.7512207 C24.92413815 49.1115099 24.92413815 49.1115099 27 51 C25.87078125 51.09474609 25.87078125 51.09474609 24.71875 51.19140625 C2.94010885 53.70229328 -17.38830905 67.12031215 -31 84 C-35.72160409 90.48430323 -39.95726329 97.2842286 -44.18603516 104.09570312 C-46.97682476 108.56397138 -49.86543016 112.96695346 -52.75 117.375 C-53.81844775 119.01774849 -54.88617005 120.66096906 -55.953125 122.3046875 C-56.71979492 123.48562988 -56.71979492 123.48562988 -57.50195312 124.69042969 C-60.28674737 128.98380542 -63.06583873 133.28086804 -65.84350586 137.57885742 C-68.24962316 141.30047483 -70.66164886 145.01811021 -73.08203125 148.73046875 C-79.41490222 158.44595367 -85.68693508 168.19702971 -91.90283203 177.98779297 C-95.47463656 183.61116705 -99.06498665 189.22165446 -102.6875 194.8125 C-103.13270996 195.49973145 -103.57791992 196.18696289 -104.03662109 196.89501953 C-106.21916053 200.26106553 -108.40646987 203.62395248 -110.59765625 206.984375 C-117.29120396 217.26658719 -123.80717817 227.65452827 -130.296875 238.06640625 C-135.01289976 245.63078342 -139.7765092 253.16474474 -144.54394531 260.69677734 C-146.03986175 263.06305429 -147.5321096 265.43161005 -149.0234375 267.80078125 C-153.80626044 275.39540345 -158.61159311 282.97281966 -163.5 290.5 C-170.64197475 301.50112017 -177.64054855 312.59211034 -184.56640625 323.73046875 C-190.86035607 333.84728163 -197.21046958 343.91472797 -203.75 353.875 C-209.13398454 362.07655686 -214.34843805 370.35728663 -219.421875 378.75390625 C-222.4934043 383.83510001 -225.65420756 388.85975819 -228.8293457 393.87670898 C-230.70452826 396.85494011 -232.51520149 399.80567672 -234 403 C-234.66 403 -235.32 403 -236 403 C-240.37564119 392.32591444 -244.60403846 381.67674641 -248.08984375 370.67578125 C-248.74281521 368.10994065 -248.74281521 368.10994065 -250 367 C-250.77613664 355.94005286 -245.71286461 348.60849186 -239.65316772 339.77297974 C-237.59063336 336.76489491 -235.5550114 333.73864714 -233.515625 330.71484375 C-233.11627243 330.12428696 -232.71691986 329.53373016 -232.3054657 328.92527771 C-229.33701013 324.52759299 -226.46600819 320.08204765 -223.6875 315.5625 C-218.50351298 307.14797686 -213.10277182 298.87906708 -207.69970703 290.60400391 C-204.8369223 286.21812888 -201.98040801 281.82818017 -199.125 277.4375 C-198.57497314 276.59179443 -198.02494629 275.74608887 -197.45825195 274.87475586 C-194.20250914 269.86412343 -190.97381152 264.8377622 -187.77734375 259.7890625 C-185.51715619 256.24230664 -183.22670366 252.7155716 -180.9375 249.1875 C-176.58826483 242.48148032 -172.28514446 235.74713352 -168 229 C-163.42692047 221.79960874 -158.82475196 214.6198722 -154.17919922 207.46606445 C-149.85145724 200.79196581 -145.59212187 194.07490297 -141.32983398 187.35888672 C-137.44915596 181.25306138 -133.52135108 175.1803574 -129.5625 169.125 C-122.82362678 158.80574579 -116.31421157 148.34687797 -109.80029297 137.88476562 C-107.04889235 133.47595769 -104.27682766 129.08032478 -101.5 124.6875 C-101.04423584 123.96618896 -100.58847168 123.24487793 -100.11889648 122.50170898 C-95.32196319 114.91714371 -90.49717315 107.35027848 -85.67578125 99.78125 C-80.06181364 90.96697381 -74.45387873 82.14903717 -68.875 73.3125 C-68.38813721 72.54172119 -67.90127441 71.77094238 -67.3996582 70.97680664 C-64.92938174 67.06399703 -62.46475492 63.14775948 -60.0078125 59.2265625 C-57.02542572 54.47140124 -54.01862813 49.73222131 -51 45 C-50.49968262 44.21141602 -49.99936523 43.42283203 -49.48388672 42.61035156 C-38.7105438 25.70406416 -26.91653717 10.29672683 -8 2 C-7.071875 1.5875 -6.14375 1.175 -5.1875 0.75 C-3 0 -3 0 0 0 Z " fill="#212431" transform="translate(275,82)"/>
<path d="M0 0 C0.66 0 1.32 0 2 0 C2.68835938 1.77503906 2.68835938 1.77503906 3.390625 3.5859375 C4.01039004 5.182302 4.63018323 6.77865558 5.25 8.375 C5.70052734 9.53708984 5.70052734 9.53708984 6.16015625 10.72265625 C9.89197878 20.33011426 13.76476601 29.86995209 17.75 39.375 C43.05720695 100.03924108 43.05720695 100.03924108 35.17578125 120.09765625 C31.47644814 128.3352047 25.87388948 135.48963714 20.60839844 142.77099609 C18.06975406 146.28918418 15.56482974 149.8309314 13.0625 153.375 C12.32362549 154.41938232 12.32362549 154.41938232 11.56982422 155.48486328 C7.84441765 160.76463449 4.19597444 166.09418724 0.5625 171.4375 C-3.69587165 177.69768115 -8.04309852 183.87963544 -12.5 190 C-17.41926267 196.75828065 -22.19205722 203.60147498 -26.89428711 210.51220703 C-31.41642285 217.15683894 -35.97889004 223.77262349 -40.5625 230.375 C-41.24159424 231.35621826 -41.92068848 232.33743652 -42.62036133 233.34838867 C-43.26255615 234.27240479 -43.90475098 235.1964209 -44.56640625 236.1484375 C-45.41634155 237.37312744 -45.41634155 237.37312744 -46.28344727 238.62255859 C-48.10922267 241.1512744 -50.03312991 243.57994023 -52 246 C-52.84026396 244.23244474 -53.67198722 242.46082737 -54.5 240.6875 C-54.9640625 239.70136719 -55.428125 238.71523438 -55.90625 237.69921875 C-57 235 -57 235 -57 232 C-57.66 232 -58.32 232 -59 232 C-59.37125 231.0925 -59.7425 230.185 -60.125 229.25 C-62.0580043 224.70882721 -64.33397461 220.34820692 -66.59765625 215.96484375 C-67.99039195 213.02031341 -69.0076661 210.09894105 -70 207 C-72.18273439 201.53799168 -74.84112588 196.30417978 -77.5 191.0625 C-80.67881018 184.78218615 -83.37482638 178.42364332 -85.80078125 171.8203125 C-86.94847489 168.70094004 -88.11084022 165.78258266 -89.625 162.8125 C-90.92983728 160.14351466 -91.42332525 157.88337376 -92 155 C-92.66 154.67 -93.32 154.34 -94 154 C-94.7866377 152.0506314 -95.48243057 150.06398478 -96.125 148.0625 C-96.47820312 146.98097656 -96.83140625 145.89945313 -97.1953125 144.78515625 C-98 142 -98 142 -98 140 C-99.28777344 139.89816406 -100.57554687 139.79632813 -101.90234375 139.69140625 C-107.06284586 139.11801713 -111.6862282 137.66727214 -116.5625 135.9375 C-117.38041016 135.65583984 -118.19832031 135.37417969 -119.04101562 135.08398438 C-121.03023483 134.39764559 -123.0155524 133.7000155 -125 133 C-120.95974188 131.77672356 -119.00146319 132.6410125 -115 134 C-113.56506312 134.15161597 -112.12693369 134.27469103 -110.6875 134.375 C-105.61628312 134.83209948 -101.50081108 136.71235371 -97 139 C-96.76925781 138.32195312 -96.53851563 137.64390625 -96.30078125 136.9453125 C-94.68014459 133.27576283 -92.49139737 130.13598201 -90.1875 126.875 C-89.18968932 125.44429965 -88.19231161 124.01329726 -87.1953125 122.58203125 C-86.67227539 121.8338916 -86.14923828 121.08575195 -85.61035156 120.31494141 C-83.44941661 117.20851551 -81.31998494 114.08111057 -79.19042969 110.953125 C-73.04790749 101.93279246 -66.79950486 92.99252679 -60.48388672 84.09277344 C-58.48566327 81.27461428 -56.49368565 78.45207142 -54.50219727 75.62915039 C-53.50186876 74.2113274 -52.50105595 72.79384599 -51.49975586 71.37670898 C-48.99249078 67.82784526 -46.49088823 64.27522468 -44 60.71484375 C-38.51104183 52.88176391 -32.91252947 45.15415551 -27.14624023 37.52270508 C-24.00174704 33.35577248 -20.95350822 29.14075385 -17.98828125 24.84375 C-15.11875274 20.73959134 -12.1832813 16.68374454 -9.25 12.625 C-8.3983728 11.44574951 -8.3983728 11.44574951 -7.52954102 10.24267578 C-4.47128608 6.01405633 -4.47128608 6.01405633 -3 4 C-2.22994629 2.8869751 -2.22994629 2.8869751 -1.44433594 1.75146484 C-0.96770508 1.17348145 -0.49107422 0.59549805 0 0 Z " fill="#212531" transform="translate(487,214)"/>
<path d="M0 0 C7.6002017 0.6608871 14.91714734 2.9472194 22.1171875 5.3828125 C25.63244938 6.5716795 29.16735618 7.63362951 32.734375 8.65625 C34.73992643 9.26971279 36.74513083 9.88431115 38.75 10.5 C40.27173828 10.91378906 40.27173828 10.91378906 41.82421875 11.3359375 C45.87308242 12.62348679 49.01352097 13.64168834 51.56616211 17.15649414 C52.90048634 20.05538643 53.94798881 22.98707908 55 26 C56.07745396 28.59887381 57.21714653 31.1699443 58.34765625 33.74609375 C58.95482789 35.16024012 59.56025748 36.57513555 60.1640625 37.99072266 C60.47375977 38.71608215 60.78345703 39.44144165 61.10253906 40.18878174 C61.41932617 40.93085876 61.73611328 41.67293579 62.0625 42.4375 C62.72514724 43.98751584 63.38790928 45.5374826 64.05078125 47.08740234 C65.05876123 49.4443358 66.06663413 51.80131448 67.07400513 54.1585083 C69.17779532 59.08077061 71.28734339 64.00051359 73.40234375 68.91796875 C83.09355431 91.45939499 83.09355431 91.45939499 87.53125 102.4453125 C88.48424328 104.75175901 89.48206573 107.04037655 90.53125 109.3046875 C93.55210547 115.90022195 95.42756902 121.71716743 94 129 C92.26085646 132.91946687 90.02051191 135.97948809 87 139 C81.46870779 138.6581869 76.51587975 137.40678751 71.28125 135.6015625 C70.57907349 135.36593597 69.87689697 135.13030945 69.15344238 134.88754272 C66.93317444 134.14040954 64.71666094 133.38275836 62.5 132.625 C61.01454644 132.12433632 59.5288708 131.62433106 58.04296875 131.125 C51.9701236 129.07588306 45.9256012 126.98820844 39.92999268 124.72177124 C35.17255825 122.9426042 30.35730739 121.3210813 25.55566406 119.66601562 C23.63528303 119.00354731 21.7160613 118.33779532 19.796875 117.671875 C13.76781936 115.59116141 7.73999802 113.57676766 1.61962891 111.78271484 C-4.15856558 110.05625711 -9.88725572 108.16814348 -15.625 106.3125 C-16.29798126 106.09512177 -16.97096252 105.87774353 -17.66433716 105.65377808 C-26.93374187 102.65861768 -36.19363989 99.63574348 -45.4375 96.5625 C-46.39414551 96.24514893 -47.35079102 95.92779785 -48.33642578 95.60083008 C-53.6026692 93.8414797 -58.81389931 91.98345605 -64 90 C-62.39616386 85.15097494 -59.64645653 81.40748448 -56.6875 77.3125 C-56.15769531 76.57064453 -55.62789062 75.82878906 -55.08203125 75.06445312 C-53.39423256 72.70510073 -51.69839409 70.3517346 -50 68 C-49.45811035 67.24895996 -48.9162207 66.49791992 -48.35791016 65.72412109 C-46.19346534 62.72574185 -44.02765786 59.728364 -41.8581543 56.73364258 C-38.20134348 51.68163455 -34.58765702 46.60130153 -31 41.5 C-5.98918175 5.98918175 -5.98918175 5.98918175 0 0 Z " fill="#2449F9" transform="translate(578,418)"/>
<path d="M0 0 C4.39094264 0.63012017 8.41163221 1.68451386 12.625 3.0625 C20.32390308 5.53961134 28.09085726 7.74514219 35.875 9.9375 C46.05270938 12.81426416 56.09730703 15.9288745 66.09960938 19.359375 C73.32650291 21.79557344 80.65481482 23.95018088 88 26 C88.99396895 29.91278488 89.71136587 33.40343424 88.02490234 37.18847656 C86.51018198 39.43007511 84.89446984 41.52610597 83.1875 43.625 C81.97424883 45.2052576 80.76333914 46.78731545 79.5546875 48.37109375 C78.94979492 49.15081543 78.34490234 49.93053711 77.72167969 50.73388672 C75.27173162 53.95856312 73.02865686 57.29964406 70.8125 60.6875 C70.4095874 61.29779053 70.0066748 61.90808105 69.59155273 62.53686523 C68.39143968 64.35600177 67.19553695 66.17785379 66 68 C60.45643907 76.42270316 54.80085815 84.75188048 49 93 C43.62851818 100.63849752 38.3748373 108.3400104 33.23193359 116.13378906 C21.97225619 133.19066065 10.47636375 150.08865229 -1 167 C-2.8215332 166.42138672 -2.8215332 166.42138672 -5 165 C-6.14049931 162.72961244 -7.01928583 160.6381051 -7.85546875 158.2578125 C-8.11438904 157.55883347 -8.37330933 156.85985443 -8.64007568 156.13969421 C-9.20425636 154.61190453 -9.76193311 153.08170129 -10.31393433 151.54946899 C-11.50738942 148.23718812 -12.73171133 144.93658665 -13.95411682 141.63490295 C-14.60712407 139.87014735 -15.25848413 138.10478149 -15.90830994 136.33885193 C-19.44626747 126.73706416 -23.13455836 117.19454405 -26.83511353 107.65447998 C-27.90812012 104.88824206 -28.97915645 102.12124977 -30.04956055 99.35400391 C-30.38925369 98.47655518 -30.72894684 97.59910645 -31.07893372 96.69506836 C-31.74629674 94.9700441 -32.4126485 93.24462822 -33.07792664 91.51879883 C-34.7060692 87.30269311 -36.35829621 83.09900075 -38.05908203 78.91162109 C-38.38638809 78.09682785 -38.71369415 77.28203461 -39.05091858 76.44255066 C-39.6659433 74.91411254 -40.28894778 73.38884988 -40.9216156 71.86763 C-42.56384564 67.76318627 -43.50385276 64.42163862 -43 60 C-41.54252237 57.59070024 -40.11929454 55.55454722 -38.375 53.375 C-37.3557054 52.04477955 -36.3389016 50.71264785 -35.32421875 49.37890625 C-34.51090088 48.31760498 -34.51090088 48.31760498 -33.68115234 47.23486328 C-30.74647332 43.33360685 -27.97271668 39.32113327 -25.1875 35.3125 C-24.60677734 34.48016846 -24.02605469 33.64783691 -23.42773438 32.7902832 C-21.61683201 30.19467301 -19.80818737 27.59750214 -18 25 C-15.46042469 21.35270331 -12.91837676 17.7071465 -10.375 14.0625 C-9.79516357 13.22823486 -9.21532715 12.39396973 -8.61791992 11.53442383 C-5.86094602 7.58399342 -3.07558397 3.71320504 0 0 Z " fill="#212531" transform="translate(280,523)"/>
<path d="M0 0 C7.08368949 1.74607977 13.80558185 3.97573672 20.56640625 6.71875 C26.93611914 9.0956167 33.39776929 10.86084857 40.01083374 12.43214417 C67.3715433 19.10542779 67.3715433 19.10542779 73.53515625 28.77734375 C76.29373411 34.41724451 78.15357692 40.30336427 79.88378906 46.328125 C81.72704705 52.39168583 84.31047049 58.12270272 86.8125 63.9375 C87.80401835 66.34318624 88.79087755 68.75079724 89.7734375 71.16015625 C92.11918775 76.89097651 94.50888254 82.60248685 96.9140625 88.30859375 C97.92481987 90.71231639 98.93524318 93.11617927 99.94564819 95.52005005 C100.59484135 97.06142688 101.24583374 98.60204746 101.89883423 100.14181519 C117.46291003 136.85586384 117.46291003 136.85586384 111.94921875 156.72265625 C110.32769329 160.61298276 110.32769329 160.61298276 108 162 C102.19166717 161.57667281 97.13744926 160.25483764 91.66796875 158.32421875 C90.07874501 157.77875016 88.4893852 157.2336779 86.89990234 156.68896484 C86.09035095 156.40889587 85.28079956 156.1288269 84.44671631 155.840271 C80.51390379 154.48963288 76.56311301 153.19435348 72.61328125 151.89453125 C71.06302609 151.38123661 69.51289567 150.86756505 67.96289062 150.35351562 C65.61584289 149.57528791 63.26850843 148.79799477 60.92016602 148.02368164 C58.5877482 147.25432014 56.25665874 146.4810449 53.92578125 145.70703125 C53.23092117 145.47885208 52.5360611 145.25067291 51.82014465 145.01557922 C47.43765539 143.55508275 43.22420413 141.87097885 39 140 C39.88620328 132.53057239 39.88620328 132.53057239 40.50268555 129.65625 C43.11300488 115.71404364 41.21155292 101.99413862 36 89 C35.18599455 86.90502692 34.3722128 84.80996692 33.55859375 82.71484375 C30.4447488 74.78019618 27.22769328 66.88888203 24 59 C23.3319977 57.36524808 22.66403005 55.73048201 21.99609375 54.09570312 C18.59380712 45.77227066 15.18272607 37.45247419 11.76171875 29.13671875 C11.45018356 28.37934921 11.13864838 27.62197968 10.81767273 26.84165955 C9.2145507 22.94598455 7.60841552 19.05157864 5.99853516 15.15869141 C5.67657669 14.37927689 5.35461823 13.59986237 5.02290344 12.79682922 C4.41129293 11.31648004 3.79886058 9.83647003 3.18547058 8.3568573 C2.04254586 5.58932458 0.94724201 2.84172603 0 0 Z " fill="#2348F8" transform="translate(494,200)"/>
<path d="M0 0 C2.57186829 1.28593415 2.79428631 2.34389592 3.953125 4.9453125 C4.50661621 6.17882446 4.50661621 6.17882446 5.07128906 7.43725586 C5.46026367 8.32421143 5.84923828 9.21116699 6.25 10.125 C6.65186523 11.03064697 7.05373047 11.93629395 7.46777344 12.86938477 C12.13395601 23.45609003 16.31822475 34.20654551 20.44921875 45.01171875 C23.42215747 52.70821169 26.52686389 60.35391533 29.59765625 68.01171875 C30.00185791 69.02008789 30.40605957 70.02845703 30.82250977 71.06738281 C31.58381075 72.96345319 32.34717916 74.85869536 33.11303711 76.75292969 C34.99801744 81.42722213 36.78680364 86.11139874 38.4375 90.875 C42.05717425 101.73738188 42.05717425 101.73738188 47.20703125 111.8984375 C48.46663661 115.23670196 47.83928051 117.57021298 47 121 C45.59808155 123.49229947 44.21711024 125.69519828 42.5625 128 C41.64294778 129.32923246 40.72368464 130.65866495 39.8046875 131.98828125 C39.33514648 132.65811035 38.86560547 133.32793945 38.38183594 134.01806641 C36.27173612 137.04453112 34.22903184 140.11454531 32.1875 143.1875 C31.79071045 143.78183838 31.3939209 144.37617676 30.98510742 144.98852539 C25.2422639 153.60560194 19.6282949 162.30788341 14 171 C10.13183594 170.19238281 10.13183594 170.19238281 8.9453125 168.4609375 C8.67460937 167.77257812 8.40390625 167.08421875 8.125 166.375 C7.63 165.14910156 7.63 165.14910156 7.125 163.8984375 C6.75375 162.94195312 6.3825 161.98546875 6 161 C5.54625 159.89914062 5.0925 158.79828125 4.625 157.6640625 C2.295862 151.97465769 0.07051839 146.28727422 -1.89770508 140.46118164 C-6.57150692 126.67320873 -12.46951252 113.35053813 -18.16564941 99.96228027 C-19.99531652 95.65914952 -21.81726032 91.35274502 -23.63989258 87.04663086 C-24.55742428 84.88010972 -25.47642312 82.71420905 -26.3972168 80.54907227 C-28.70422462 75.11491602 -30.95353903 69.66568927 -33.10327148 64.16723633 C-33.97261273 61.97447389 -33.97261273 61.97447389 -35.11962891 59.8605957 C-36.40866299 57.13632262 -35.94859297 55.84988539 -35 53 C-33.5842091 50.46587729 -32.13767785 48.05507197 -30.5625 45.625 C-30.11583984 44.92310547 -29.66917969 44.22121094 -29.20898438 43.49804688 C-25.80245181 38.1708606 -22.29951801 32.90842495 -18.76318359 27.66674805 C-15.19094803 22.35187303 -11.80234021 16.9312848 -8.48632812 11.453125 C-5.95121934 7.32025857 -3.18493262 3.65844473 0 0 Z " fill="#212531" transform="translate(172,300)"/>
<path d="M0 0 C4.69075603 0.5963732 8.55511929 1.90383168 12.890625 3.7734375 C13.54478394 4.05314392 14.19894287 4.33285034 14.8729248 4.62103271 C17.00138082 5.53273538 19.12572342 6.45360621 21.25 7.375 C22.7240276 8.00954742 24.19831417 8.64349359 25.67285156 9.27685547 C27.91925084 10.24176476 30.16545539 11.2070934 32.4105835 12.17495728 C37.18602966 14.23146641 41.97592453 16.24877825 46.78125 18.234375 C47.96299805 18.72502441 49.14474609 19.21567383 50.36230469 19.72119141 C52.56887765 20.63556115 54.7777625 21.54437791 56.98925781 22.44677734 C65.80288318 26.12079757 70.17107106 29.27365416 74.0625 38 C74.4440625 38.83047852 74.825625 39.66095703 75.21875 40.51660156 C79.48568268 49.89226593 83.49522361 59.38337792 87.5234375 68.86328125 C92.0294321 79.45980821 96.6559255 90.00422178 101.26928711 100.55432129 C102.00356293 102.23354682 102.73757076 103.91288957 103.47128296 105.59236145 C104.1427942 107.12936398 104.81497275 108.6660752 105.48794556 110.20243835 C106.07633547 111.54927404 106.66183304 112.89737898 107.24371338 114.24703979 C107.89323164 115.75252677 108.55459423 117.25289394 109.21826172 118.75219727 C110 121 110 121 110 125 C100.99693789 123.3285887 92.49520147 120.199301 83.875 117.1875 C81.60245031 116.39832579 79.32941266 115.61057363 77.05621338 114.82327271 C75.55953555 114.30457397 74.06323532 113.78478433 72.56732178 113.2638855 C68.97106834 112.01432135 65.37029646 110.78525862 61.75097656 109.60400391 C61.07704865 109.38351883 60.40312073 109.16303375 59.70877075 108.93586731 C57.88680037 108.34277005 56.06285581 107.75574696 54.23876953 107.16918945 C45.84254698 104.13816957 45.84254698 104.13816957 43.63549805 101.15673828 C43.34715088 100.46821777 43.05880371 99.77969727 42.76171875 99.0703125 C42.2522168 97.895896 42.2522168 97.895896 41.73242188 96.69775391 C41.38759766 95.84874512 41.04277344 94.99973633 40.6875 94.125 C40.30271484 93.22571777 39.91792969 92.32643555 39.52148438 91.39990234 C38.32989927 88.60706402 37.16401451 85.80442105 36 83 C34.67486763 79.87148237 33.33702836 76.74844858 32 73.625 C31.4733374 72.38665405 31.4733374 72.38665405 30.93603516 71.12329102 C26.92072987 61.72124979 22.74006174 52.39322919 18.5625 43.0625 C18.19279083 42.2364325 17.82308167 41.41036499 17.44216919 40.55926514 C13.88035748 32.60454907 10.30894043 24.65467557 6.6796875 16.73046875 C6.20716553 15.69849365 5.73464355 14.66651855 5.24780273 13.60327148 C4.39948845 11.75601063 3.54766282 9.91035657 2.69165039 8.06665039 C2.3280542 7.27637451 1.96445801 6.48609863 1.58984375 5.671875 C1.27909912 5.0025293 0.96835449 4.33318359 0.64819336 3.64355469 C0 2 0 2 0 0 Z " fill="#2549F8" transform="translate(425,25)"/>
<path d="M0 0 C2.4284035 2.17556009 3.59053976 3.98781624 4.71484375 7.03515625 C6.57509575 11.90741266 8.51662659 16.73716367 10.50390625 21.55859375 C11.16394991 23.16522916 11.82385843 24.7719201 12.48364258 26.37866211 C12.82328033 27.20510223 13.16291809 28.03154236 13.5128479 28.88302612 C15.29639593 33.22353748 17.07789739 37.56488855 18.859375 41.90625 C19.39012383 43.19963539 19.39012383 43.19963539 19.93159485 44.51914978 C23.06493011 52.1560057 26.19326968 59.79487207 29.3125 67.4375 C29.74957275 68.50605225 30.18664551 69.57460449 30.63696289 70.67553711 C31.42167595 72.60037279 32.20152686 74.52720235 32.97509766 76.45654297 C33.63013087 78.08211134 34.30027377 79.70172513 34.98974609 81.31298828 C36.64379091 85.31982554 37.63800794 87.90814233 36 92 C34.40457135 94.90313134 32.62561789 97.66635161 30.8125 100.4375 C29.72132986 102.13409895 28.63018508 103.83071421 27.5390625 105.52734375 C26.96317383 106.41663574 26.38728516 107.30592773 25.79394531 108.22216797 C22.73147202 112.96425031 19.713275 117.73445553 16.6875 122.5 C15.02379249 125.11357925 13.35923455 127.72654631 11.68896484 130.3359375 C10.47647117 132.24844558 9.28080721 134.17166264 8.09619141 136.1015625 C7.47276855 137.10960937 6.8493457 138.11765625 6.20703125 139.15625 C5.64089111 140.08244141 5.07475098 141.00863281 4.49145508 141.96289062 C3.9992749 142.63513672 3.50709473 143.30738281 3 144 C2.34 144 1.68 144 1 144 C-4.59634249 130.36985512 -10.13838078 116.72434753 -15.5 103 C-19.28938153 93.30629693 -23.13992818 83.64039476 -27.0625 74 C-27.52785156 72.85402344 -27.99320312 71.70804687 -28.47265625 70.52734375 C-28.90578125 69.46644531 -29.33890625 68.40554687 -29.78515625 67.3125 C-30.35568726 65.91451172 -30.35568726 65.91451172 -30.93774414 64.48828125 C-31.60964194 62.91439425 -32.3283768 61.35901079 -33.10864258 59.8359375 C-34.51597085 56.93724984 -34.46184703 55.21021542 -34 52 C-32.40321195 48.80953958 -30.40151615 45.93091179 -28.375 43 C-27.18089692 41.22229024 -25.98824107 39.44360769 -24.796875 37.6640625 C-24.17361328 36.74012695 -23.55035156 35.81619141 -22.90820312 34.86425781 C-19.1408114 29.20931414 -15.55192935 23.43937999 -11.93505859 17.6875 C-8.12582659 11.66685683 -4.13331296 5.80280454 0 0 Z " fill="#212531" transform="translate(109,139)"/>
<path d="M0 0 C0.66 0 1.32 0 2 0 C7.04095605 10.52532952 11.9771379 21.0826149 16.68359375 31.76171875 C18.53444732 35.95917521 20.40663745 40.14690009 22.28515625 44.33203125 C22.71944443 45.29961365 22.71944443 45.29961365 23.1625061 46.28674316 C24.33298152 48.89383796 25.50383392 51.50076273 26.67541504 54.10736084 C31.94890765 65.84151034 31.94890765 65.84151034 33.65625 69.87890625 C35.52912139 74.22897672 37.58715016 78.48730878 39.65820312 82.74609375 C41.0548228 85.68227072 42 87.70605165 42 91 C36.8500485 90.32043565 32.20296775 88.859983 27.3125 87.1875 C25.98496704 86.73987305 25.98496704 86.73987305 24.63061523 86.28320312 C18.61594448 84.24871855 12.612989 82.18010123 6.609375 80.11328125 C5.11531606 79.59928297 3.62125681 79.08528558 2.12719727 78.57128906 C-0.15613252 77.78573379 -2.43918653 76.99941725 -4.72146606 76.21081543 C-15.04140543 72.64508346 -25.37843963 69.18172107 -35.86889648 66.14257812 C-37.94137075 65.51676974 -39.97703094 64.77096167 -42 64 C-42.495 62.515 -42.495 62.515 -43 61 C-41.54637854 58.51903004 -40.05306924 56.26070048 -38.375 53.9375 C-37.87863037 53.23359131 -37.38226074 52.52968262 -36.87084961 51.80444336 C-35.25934055 49.52738181 -33.63181786 47.26254405 -32 45 C-31.46938965 44.26168945 -30.9387793 43.52337891 -30.39208984 42.76269531 C-27.69602554 39.01372529 -24.9896324 35.27240027 -22.27734375 31.53515625 C-19.02584213 27.04729073 -15.81848661 22.52927471 -12.625 18 C-12.12830811 17.29697754 -11.63161621 16.59395508 -11.11987305 15.86962891 C-8.97828719 12.83291721 -6.85551208 9.78756234 -4.765625 6.71484375 C-4.14171875 5.79832031 -3.5178125 4.88179687 -2.875 3.9375 C-2.35679687 3.16277344 -1.83859375 2.38804688 -1.3046875 1.58984375 C-0.87414062 1.06519531 -0.44359375 0.54054687 0 0 Z " fill="#212532" transform="translate(414,32)"/>
<path d="M0 0 C7.02951166 2.70045951 14.15075541 5.06390972 21.31054688 7.39453125 C26.32763796 9.04627842 31.1823784 10.83240071 36 13 C31.44120377 21.90600275 26.07211364 30.17545268 20.60205078 38.53710938 C17.68245539 43.025509 14.81109539 47.54456731 11.9375 52.0625 C11.34670654 52.98869141 10.75591309 53.91488281 10.1472168 54.86914062 C7.39134484 59.19799886 4.6588854 63.53743122 1.9921875 67.921875 C1.53593994 68.66816162 1.07969238 69.41444824 0.60961914 70.18334961 C-0.23210433 71.56499282 -1.06670446 72.95101056 -1.89282227 74.34204102 C-4.66731154 78.88910385 -4.66731154 78.88910385 -8 80 C-14.63206202 64.37690609 -21.05123923 48.670607 -27.44189453 32.94750977 C-28.73363419 29.77056094 -30.02677334 26.59418526 -31.3203125 23.41796875 C-31.72936829 22.41144257 -32.13842407 21.40491638 -32.55987549 20.3678894 C-34.3146881 16.06376101 -36.08245883 11.76982232 -37.95214844 7.51416016 C-38.23790741 6.86328934 -38.52366638 6.21241852 -38.81808472 5.54182434 C-39.54909015 3.89197424 -40.29131102 2.24710517 -41.03466797 0.6027832 C-42 -2 -42 -2 -42 -6 C-27.82630194 -10.72456602 -13.18847219 -5.10946442 0 0 Z " fill="#2449F8" transform="translate(161,135)"/>
<path d="M0 0 C2.50612166 1.25306083 2.88384342 2.33478372 4.125 4.8125 C4.47820312 5.49957031 4.83140625 6.18664062 5.1953125 6.89453125 C6 9 6 9 6 13 C6.66 13 7.32 13 8 13 C8.87279862 14.86639981 9.72251027 16.74360611 10.5625 18.625 C11.27599609 20.19121094 11.27599609 20.19121094 12.00390625 21.7890625 C13.10684175 25.34440754 12.89552313 27.42863232 12 31 C11.67 31 11.34 31 11 31 C11 29.02 11 27.04 11 25 C10.01 24.67 9.02 24.34 8 24 C6.71875 21.48828125 6.71875 21.48828125 5.5 18.3125 C4.1835505 14.95177545 2.89729349 11.8087534 1.1875 8.625 C-0.19514259 5.56863218 -0.23699262 3.31789667 0 0 Z " fill="#2239A3" transform="translate(422,433)"/>
<path d="M0 0 C0.66 0 1.32 0 2 0 C2.67260351 1.76858691 3.33788395 3.53996016 4 5.3125 C4.37125 6.29863281 4.7425 7.28476562 5.125 8.30078125 C6 11 6 11 6 14 C6.99 14.33 7.98 14.66 9 15 C9.84375 16.85546875 9.84375 16.85546875 10.5 19.1875 C11.33475384 21.96131744 12.12900456 24.24188355 13.5 26.8125 C15.78023869 31.65800721 16.81237933 36.79468389 18 42 C15.39145775 40.69572887 15.29369818 39.6754057 14.265625 36.984375 C13.94158691 36.15131836 13.61754883 35.31826172 13.28369141 34.45996094 C12.94257324 33.56567383 12.60145508 32.67138672 12.25 31.75 C9.87945034 25.65306324 7.45021733 19.65094654 4.625 13.75 C2.45834963 9.18708142 0.97120926 4.95316724 0 0 Z " fill="#233FC4" transform="translate(387,354)"/>
<path d="M0 0 C1.55961748 0.21267511 3.11870733 0.42959561 4.67578125 0.66015625 C6.40019478 0.91229739 8.12725196 1.14649649 9.85546875 1.37109375 C16.35030386 2.30127926 21.31022013 3.71743469 27 7 C27 7.33 27 7.66 27 8 C20.3801072 7.47650497 14.68234447 6.15274936 8.4375 3.9375 C7.61958984 3.65583984 6.80167969 3.37417969 5.95898438 3.08398438 C3.96976517 2.39764559 1.9844476 1.7000155 0 1 C0 0.67 0 0.34 0 0 Z " fill="#102171" transform="translate(362,346)"/>
<path d="M0 0 C0.66 0.33 1.32 0.66 2 1 C-10.34745763 15.44915254 -10.34745763 15.44915254 -15 17 C-13.67879172 14.06769807 -12.25361803 12.01335101 -9.9609375 9.765625 C-9.38085938 9.19199219 -8.80078125 8.61835937 -8.203125 8.02734375 C-7.59984375 7.44082031 -6.9965625 6.85429688 -6.375 6.25 C-5.76398438 5.64800781 -5.15296875 5.04601562 -4.5234375 4.42578125 C-3.02011376 2.94594695 -1.51065144 1.47235324 0 0 Z " fill="#646465" transform="translate(244,80)"/>
<path d="M0 0 C2 1 2 1 2.8515625 3.06640625 C3.10679687 3.89011719 3.36203125 4.71382813 3.625 5.5625 C3.88539063 6.38878906 4.14578125 7.21507812 4.4140625 8.06640625 C4.60742188 8.70449219 4.80078125 9.34257812 5 10 C5.66 10 6.32 10 7 10 C7.20496094 10.56589844 7.40992188 11.13179688 7.62109375 11.71484375 C7.89050781 12.44832031 8.15992188 13.18179687 8.4375 13.9375 C8.83775391 15.03384766 8.83775391 15.03384766 9.24609375 16.15234375 C9.85386948 17.98305678 9.85386948 17.98305678 11 19 C11.04063832 20.66617115 11.042721 22.33388095 11 24 C5.48916285 18.48916285 2.50656188 9.28163229 0 2 C0 1.34 0 0.68 0 0 Z " fill="#223072" transform="translate(402,386)"/>
<path d="M0 0 C5.21979128 -0.1799928 9.07262981 0.02905192 14 2 C14 2.66 14 3.32 14 4 C16.97 4.66 19.94 5.32 23 6 C18.97720885 7.00569779 18.14449989 7.00730064 14.453125 5.78515625 C13.60878906 5.51123047 12.76445312 5.23730469 11.89453125 4.95507812 C11.02183594 4.66052734 10.14914062 4.36597656 9.25 4.0625 C8.36183594 3.77181641 7.47367187 3.48113281 6.55859375 3.18164062 C4.36917921 2.46360682 2.18337811 1.73614477 0 1 C0 0.67 0 0.34 0 0 Z " fill="#102070" transform="translate(339,339)"/>
<path d="M0 0 C1.258125 -0.020625 2.51625 -0.04125 3.8125 -0.0625 C4.52019531 -0.07410156 5.22789062 -0.08570313 5.95703125 -0.09765625 C8 0 8 0 11 1 C11 1.66 11 2.32 11 3 C14.96 3.33 18.92 3.66 23 4 C22.67 4.66 22.34 5.32 22 6 C14.2501365 5.47458553 7.3549914 3.44408524 0 1 C0 0.67 0 0.34 0 0 Z " fill="#152A93" transform="translate(401,473)"/>
<path d="M0 0 C0.66 0 1.32 0 2 0 C2.67260351 1.76858691 3.33788395 3.53996016 4 5.3125 C4.37125 6.29863281 4.7425 7.28476562 5.125 8.30078125 C6 11 6 11 6 14 C6.99 14.33 7.98 14.66 9 15 C8.67 16.32 8.34 17.64 8 19 C0 6.14285714 0 6.14285714 0 0 Z " fill="#223BB3" transform="translate(387,354)"/>
<path d="M0 0 C1.258125 -0.020625 2.51625 -0.04125 3.8125 -0.0625 C4.52019531 -0.07410156 5.22789062 -0.08570313 5.95703125 -0.09765625 C8 0 8 0 11 1 C11 1.66 11 2.32 11 3 C13.97 3.495 13.97 3.495 17 4 C13.02623171 5.56393356 10.18622097 4.36145292 6.25 3.0625 C4.49429687 2.49208984 4.49429687 2.49208984 2.703125 1.91015625 C1.81109375 1.60980469 0.9190625 1.30945313 0 1 C0 0.67 0 0.34 0 0 Z " fill="#162C99" transform="translate(384,468)"/>
<path d="M0 0 C0.66 0.33 1.32 0.66 2 1 C1.07038578 2.15224028 0.1309875 3.29659176 -0.8125 4.4375 C-1.59560547 5.39462891 -1.59560547 5.39462891 -2.39453125 6.37109375 C-4 8 -4 8 -7 9 C-5.44499019 5.18315774 -2.96404505 2.80804268 0 0 Z " fill="#7F7F7F" transform="translate(106,123)"/>
<path d="M0 0 C0.33 1.32 0.66 2.64 1 4 C-0.9375 6.25 -0.9375 6.25 -3 8 C-3.66 7.67 -4.32 7.34 -5 7 C-3.35 4.69 -1.7 2.38 0 0 Z " fill="#1E44E1" transform="translate(523,493)"/>
</svg>
